<mxfile host="app.diagrams.net" modified="2022-10-03T07:48:19.427Z" agent="5.0 (Windows NT 10.0; Win64; x64) AppleWebKit/537.36 (KHTML, like Gecko) Chrome/105.0.0.0 Safari/537.36 Edg/105.0.1343.53" etag="KN0RzKCh3Zx1hpyIVbuN" version="20.4.0" type="github">
  <diagram id="kPupqWcu7q19SiTpw6ZK" name="第 1 页">
    <mxGraphModel dx="1037" dy="547" grid="1" gridSize="10" guides="1" tooltips="1" connect="1" arrows="1" fold="1" page="1" pageScale="1" pageWidth="3300" pageHeight="2339" math="0" shadow="0">
      <root>
        <mxCell id="0" />
        <mxCell id="1" parent="0" />
        <mxCell id="b23ylB3f0s9RIf1_P2MT-27" value="" style="endArrow=none;html=1;rounded=0;strokeWidth=3;fontSize=15;exitX=1.006;exitY=0.861;exitDx=0;exitDy=0;exitPerimeter=0;entryX=1;entryY=0.5;entryDx=0;entryDy=0;" parent="1" source="b23ylB3f0s9RIf1_P2MT-15" target="b23ylB3f0s9RIf1_P2MT-23" edge="1">
          <mxGeometry width="50" height="50" relative="1" as="geometry">
            <mxPoint x="540" y="280" as="sourcePoint" />
            <mxPoint x="590" y="262" as="targetPoint" />
            <Array as="points">
              <mxPoint x="640" y="262" />
              <mxPoint x="640" y="310" />
              <mxPoint x="680" y="310" />
            </Array>
          </mxGeometry>
        </mxCell>
        <mxCell id="b23ylB3f0s9RIf1_P2MT-2" value="" style="shape=table;html=1;whiteSpace=wrap;startSize=0;container=1;collapsible=0;childLayout=tableLayout;strokeWidth=3;gradientColor=default;gradientDirection=south;swimlaneFillColor=default;" parent="1" vertex="1">
          <mxGeometry x="120" y="210" width="100" height="60" as="geometry" />
        </mxCell>
        <mxCell id="b23ylB3f0s9RIf1_P2MT-3" value="" style="shape=tableRow;horizontal=0;startSize=0;swimlaneHead=0;swimlaneBody=0;top=0;left=0;bottom=0;right=0;collapsible=0;dropTarget=0;fillColor=none;points=[[0,0.5],[1,0.5]];portConstraint=eastwest;" parent="b23ylB3f0s9RIf1_P2MT-2" vertex="1">
          <mxGeometry width="100" height="20" as="geometry" />
        </mxCell>
        <mxCell id="b23ylB3f0s9RIf1_P2MT-4" value="" style="shape=partialRectangle;html=1;whiteSpace=wrap;connectable=0;fillColor=none;top=0;left=0;bottom=0;right=0;overflow=hidden;" parent="b23ylB3f0s9RIf1_P2MT-3" vertex="1">
          <mxGeometry width="33" height="20" as="geometry">
            <mxRectangle width="33" height="20" as="alternateBounds" />
          </mxGeometry>
        </mxCell>
        <mxCell id="b23ylB3f0s9RIf1_P2MT-5" value="" style="shape=partialRectangle;html=1;whiteSpace=wrap;connectable=0;fillColor=none;top=0;left=0;bottom=0;right=0;overflow=hidden;" parent="b23ylB3f0s9RIf1_P2MT-3" vertex="1">
          <mxGeometry x="33" width="34" height="20" as="geometry">
            <mxRectangle width="34" height="20" as="alternateBounds" />
          </mxGeometry>
        </mxCell>
        <mxCell id="b23ylB3f0s9RIf1_P2MT-6" value="" style="shape=partialRectangle;html=1;whiteSpace=wrap;connectable=0;fillColor=none;top=0;left=0;bottom=0;right=0;overflow=hidden;" parent="b23ylB3f0s9RIf1_P2MT-3" vertex="1">
          <mxGeometry x="67" width="33" height="20" as="geometry">
            <mxRectangle width="33" height="20" as="alternateBounds" />
          </mxGeometry>
        </mxCell>
        <mxCell id="b23ylB3f0s9RIf1_P2MT-7" value="" style="shape=tableRow;horizontal=0;startSize=0;swimlaneHead=0;swimlaneBody=0;top=0;left=0;bottom=0;right=0;collapsible=0;dropTarget=0;fillColor=none;points=[[0,0.5],[1,0.5]];portConstraint=eastwest;" parent="b23ylB3f0s9RIf1_P2MT-2" vertex="1">
          <mxGeometry y="20" width="100" height="20" as="geometry" />
        </mxCell>
        <mxCell id="b23ylB3f0s9RIf1_P2MT-8" value="" style="shape=partialRectangle;html=1;whiteSpace=wrap;connectable=0;fillColor=none;top=0;left=0;bottom=0;right=0;overflow=hidden;" parent="b23ylB3f0s9RIf1_P2MT-7" vertex="1">
          <mxGeometry width="33" height="20" as="geometry">
            <mxRectangle width="33" height="20" as="alternateBounds" />
          </mxGeometry>
        </mxCell>
        <mxCell id="b23ylB3f0s9RIf1_P2MT-9" value="" style="shape=partialRectangle;html=1;whiteSpace=wrap;connectable=0;fillColor=none;top=0;left=0;bottom=0;right=0;overflow=hidden;" parent="b23ylB3f0s9RIf1_P2MT-7" vertex="1">
          <mxGeometry x="33" width="34" height="20" as="geometry">
            <mxRectangle width="34" height="20" as="alternateBounds" />
          </mxGeometry>
        </mxCell>
        <mxCell id="b23ylB3f0s9RIf1_P2MT-10" value="" style="shape=partialRectangle;html=1;whiteSpace=wrap;connectable=0;fillColor=none;top=0;left=0;bottom=0;right=0;overflow=hidden;" parent="b23ylB3f0s9RIf1_P2MT-7" vertex="1">
          <mxGeometry x="67" width="33" height="20" as="geometry">
            <mxRectangle width="33" height="20" as="alternateBounds" />
          </mxGeometry>
        </mxCell>
        <mxCell id="b23ylB3f0s9RIf1_P2MT-11" value="" style="shape=tableRow;horizontal=0;startSize=0;swimlaneHead=0;swimlaneBody=0;top=0;left=0;bottom=0;right=0;collapsible=0;dropTarget=0;fillColor=none;points=[[0,0.5],[1,0.5]];portConstraint=eastwest;" parent="b23ylB3f0s9RIf1_P2MT-2" vertex="1">
          <mxGeometry y="40" width="100" height="20" as="geometry" />
        </mxCell>
        <mxCell id="b23ylB3f0s9RIf1_P2MT-12" value="" style="shape=partialRectangle;html=1;whiteSpace=wrap;connectable=0;fillColor=none;top=0;left=0;bottom=0;right=0;overflow=hidden;" parent="b23ylB3f0s9RIf1_P2MT-11" vertex="1">
          <mxGeometry width="33" height="20" as="geometry">
            <mxRectangle width="33" height="20" as="alternateBounds" />
          </mxGeometry>
        </mxCell>
        <mxCell id="b23ylB3f0s9RIf1_P2MT-13" value="" style="shape=partialRectangle;html=1;whiteSpace=wrap;connectable=0;fillColor=none;top=0;left=0;bottom=0;right=0;overflow=hidden;" parent="b23ylB3f0s9RIf1_P2MT-11" vertex="1">
          <mxGeometry x="33" width="34" height="20" as="geometry">
            <mxRectangle width="34" height="20" as="alternateBounds" />
          </mxGeometry>
        </mxCell>
        <mxCell id="b23ylB3f0s9RIf1_P2MT-14" value="" style="shape=partialRectangle;html=1;whiteSpace=wrap;connectable=0;fillColor=none;top=0;left=0;bottom=0;right=0;overflow=hidden;pointerEvents=1;" parent="b23ylB3f0s9RIf1_P2MT-11" vertex="1">
          <mxGeometry x="67" width="33" height="20" as="geometry">
            <mxRectangle width="33" height="20" as="alternateBounds" />
          </mxGeometry>
        </mxCell>
        <mxCell id="b23ylB3f0s9RIf1_P2MT-15" value="&lt;font style=&quot;font-size: 15px;&quot;&gt;&lt;b&gt;MPPT&lt;br&gt;Controller&amp;nbsp;&lt;/b&gt;&lt;/font&gt;" style="rounded=0;whiteSpace=wrap;html=1;strokeWidth=3;fillColor=#fff2cc;strokeColor=#d6b656;" parent="1" vertex="1">
          <mxGeometry x="280" y="210" width="120" height="60" as="geometry" />
        </mxCell>
        <mxCell id="b23ylB3f0s9RIf1_P2MT-16" value="" style="rounded=0;whiteSpace=wrap;html=1;strokeWidth=3;fillColor=#e1d5e7;strokeColor=#9673a6;" parent="1" vertex="1">
          <mxGeometry x="440" y="320" width="160" height="100" as="geometry" />
        </mxCell>
        <mxCell id="b23ylB3f0s9RIf1_P2MT-17" value="&lt;b&gt;&lt;font style=&quot;font-size: 15px;&quot;&gt;V&lt;/font&gt;&lt;/b&gt;" style="ellipse;whiteSpace=wrap;html=1;aspect=fixed;strokeWidth=3;fillColor=#d5e8d4;strokeColor=#82b366;" parent="1" vertex="1">
          <mxGeometry x="460" y="345" width="50" height="50" as="geometry" />
        </mxCell>
        <mxCell id="b23ylB3f0s9RIf1_P2MT-18" value="&lt;b&gt;&lt;font style=&quot;font-size: 15px;&quot;&gt;A&lt;/font&gt;&lt;/b&gt;" style="ellipse;whiteSpace=wrap;html=1;aspect=fixed;strokeWidth=3;fillColor=#ffe6cc;strokeColor=#d79b00;" parent="1" vertex="1">
          <mxGeometry x="530" y="345" width="50" height="50" as="geometry" />
        </mxCell>
        <mxCell id="b23ylB3f0s9RIf1_P2MT-19" value="&lt;b&gt;Jetson&lt;br&gt;Nano&lt;/b&gt;" style="shape=process;whiteSpace=wrap;html=1;backgroundOutline=1;strokeWidth=3;fontSize=15;fillColor=#ffcd28;gradientColor=#ffa500;strokeColor=#d79b00;" parent="1" vertex="1">
          <mxGeometry x="772.5" y="320" width="160" height="100" as="geometry" />
        </mxCell>
        <mxCell id="b23ylB3f0s9RIf1_P2MT-20" value="" style="endArrow=none;html=1;rounded=0;fontSize=15;exitX=1;exitY=0.5;exitDx=0;exitDy=0;strokeWidth=3;fillColor=#f8cecc;strokeColor=#b85450;" parent="1" source="b23ylB3f0s9RIf1_P2MT-3" edge="1">
          <mxGeometry width="50" height="50" relative="1" as="geometry">
            <mxPoint x="510" y="260" as="sourcePoint" />
            <mxPoint x="280" y="220" as="targetPoint" />
          </mxGeometry>
        </mxCell>
        <mxCell id="b23ylB3f0s9RIf1_P2MT-21" value="" style="endArrow=none;html=1;rounded=0;fontSize=15;exitX=1;exitY=0.5;exitDx=0;exitDy=0;strokeWidth=3;" parent="1" edge="1">
          <mxGeometry width="50" height="50" relative="1" as="geometry">
            <mxPoint x="220" y="260" as="sourcePoint" />
            <mxPoint x="280" y="260" as="targetPoint" />
          </mxGeometry>
        </mxCell>
        <mxCell id="b23ylB3f0s9RIf1_P2MT-22" value="" style="endArrow=none;html=1;rounded=0;fontSize=15;entryX=0;entryY=0;entryDx=0;entryDy=0;strokeWidth=3;fillColor=#f8cecc;strokeColor=#b85450;" parent="1" target="b23ylB3f0s9RIf1_P2MT-18" edge="1">
          <mxGeometry width="50" height="50" relative="1" as="geometry">
            <mxPoint x="400" y="220" as="sourcePoint" />
            <mxPoint x="560" y="248" as="targetPoint" />
            <Array as="points">
              <mxPoint x="537" y="220" />
            </Array>
          </mxGeometry>
        </mxCell>
        <mxCell id="b23ylB3f0s9RIf1_P2MT-23" value="LOAD" style="rounded=1;whiteSpace=wrap;html=1;strokeWidth=3;fontSize=15;rotation=90;fillColor=#0050ef;fontColor=#ffffff;strokeColor=#001DBC;" parent="1" vertex="1">
          <mxGeometry x="650" y="247.5" width="60" height="35" as="geometry" />
        </mxCell>
        <mxCell id="b23ylB3f0s9RIf1_P2MT-25" value="" style="swimlane;strokeWidth=3;fontSize=15;startSize=23;fillColor=#b0e3e6;strokeColor=#0e8088;" parent="1" vertex="1">
          <mxGeometry x="732.5" y="230" width="40" height="65" as="geometry">
            <mxRectangle x="680" y="240" width="50" height="40" as="alternateBounds" />
          </mxGeometry>
        </mxCell>
        <mxCell id="b23ylB3f0s9RIf1_P2MT-26" value="" style="endArrow=none;html=1;rounded=0;strokeWidth=3;fontSize=15;exitX=1;exitY=0;exitDx=0;exitDy=0;entryX=0;entryY=0.5;entryDx=0;entryDy=0;fillColor=#f8cecc;strokeColor=#b85450;" parent="1" source="b23ylB3f0s9RIf1_P2MT-18" target="b23ylB3f0s9RIf1_P2MT-23" edge="1">
          <mxGeometry width="50" height="50" relative="1" as="geometry">
            <mxPoint x="550" y="300" as="sourcePoint" />
            <mxPoint x="610" y="250" as="targetPoint" />
            <Array as="points">
              <mxPoint x="573" y="220" />
              <mxPoint x="680" y="220" />
            </Array>
          </mxGeometry>
        </mxCell>
        <mxCell id="b23ylB3f0s9RIf1_P2MT-28" value="" style="endArrow=none;html=1;rounded=0;strokeWidth=3;fontSize=15;exitX=0;exitY=0;exitDx=0;exitDy=0;fillColor=#f8cecc;strokeColor=#b85450;" parent="1" source="b23ylB3f0s9RIf1_P2MT-17" edge="1">
          <mxGeometry width="50" height="50" relative="1" as="geometry">
            <mxPoint x="540" y="280" as="sourcePoint" />
            <mxPoint x="467" y="220" as="targetPoint" />
          </mxGeometry>
        </mxCell>
        <mxCell id="b23ylB3f0s9RIf1_P2MT-29" value="" style="endArrow=none;html=1;rounded=0;strokeWidth=3;fontSize=15;exitX=1;exitY=0;exitDx=0;exitDy=0;" parent="1" source="b23ylB3f0s9RIf1_P2MT-17" edge="1">
          <mxGeometry width="50" height="50" relative="1" as="geometry">
            <mxPoint x="540" y="280" as="sourcePoint" />
            <mxPoint x="503" y="260" as="targetPoint" />
          </mxGeometry>
        </mxCell>
        <mxCell id="b23ylB3f0s9RIf1_P2MT-30" value="" style="endArrow=none;html=1;rounded=0;strokeWidth=3;fontSize=15;entryX=0.5;entryY=0;entryDx=0;entryDy=0;fillColor=#f8cecc;strokeColor=#b85450;" parent="1" target="b23ylB3f0s9RIf1_P2MT-25" edge="1">
          <mxGeometry width="50" height="50" relative="1" as="geometry">
            <mxPoint x="680" y="220" as="sourcePoint" />
            <mxPoint x="590" y="230" as="targetPoint" />
            <Array as="points">
              <mxPoint x="753" y="220" />
            </Array>
          </mxGeometry>
        </mxCell>
        <mxCell id="b23ylB3f0s9RIf1_P2MT-31" value="" style="endArrow=none;html=1;rounded=0;strokeWidth=3;fontSize=15;entryX=0.5;entryY=1;entryDx=0;entryDy=0;" parent="1" target="b23ylB3f0s9RIf1_P2MT-25" edge="1">
          <mxGeometry width="50" height="50" relative="1" as="geometry">
            <mxPoint x="680" y="310" as="sourcePoint" />
            <mxPoint x="590" y="230" as="targetPoint" />
            <Array as="points">
              <mxPoint x="753" y="310" />
            </Array>
          </mxGeometry>
        </mxCell>
        <mxCell id="b23ylB3f0s9RIf1_P2MT-32" value="" style="endArrow=none;html=1;rounded=0;strokeWidth=3;fontSize=15;entryX=0;entryY=0.25;entryDx=0;entryDy=0;exitX=1;exitY=0.25;exitDx=0;exitDy=0;fillColor=#f8cecc;strokeColor=#b85450;" parent="1" source="b23ylB3f0s9RIf1_P2MT-16" target="b23ylB3f0s9RIf1_P2MT-19" edge="1">
          <mxGeometry width="50" height="50" relative="1" as="geometry">
            <mxPoint x="600" y="350" as="sourcePoint" />
            <mxPoint x="770" y="350" as="targetPoint" />
          </mxGeometry>
        </mxCell>
        <mxCell id="b23ylB3f0s9RIf1_P2MT-33" value="" style="endArrow=none;html=1;rounded=0;strokeWidth=3;fontSize=15;entryX=0;entryY=0.75;entryDx=0;entryDy=0;exitX=1;exitY=0.75;exitDx=0;exitDy=0;" parent="1" source="b23ylB3f0s9RIf1_P2MT-16" target="b23ylB3f0s9RIf1_P2MT-19" edge="1">
          <mxGeometry width="50" height="50" relative="1" as="geometry">
            <mxPoint x="540" y="280" as="sourcePoint" />
            <mxPoint x="590" y="230" as="targetPoint" />
          </mxGeometry>
        </mxCell>
        <mxCell id="9oOe2sdSuEdtYgbz2QIB-1" value="&lt;b&gt;&lt;font style=&quot;font-size: 14px;&quot;&gt;Solar Panel&lt;/font&gt;&lt;/b&gt;" style="text;html=1;strokeColor=none;fillColor=none;align=center;verticalAlign=middle;whiteSpace=wrap;rounded=0;" vertex="1" parent="1">
          <mxGeometry x="115" y="180" width="110" height="30" as="geometry" />
        </mxCell>
        <mxCell id="9oOe2sdSuEdtYgbz2QIB-2" value="&lt;b&gt;&lt;font style=&quot;font-size: 14px;&quot;&gt;MPPT Solar Charger&lt;/font&gt;&lt;/b&gt;" style="text;html=1;strokeColor=none;fillColor=none;align=center;verticalAlign=middle;whiteSpace=wrap;rounded=0;" vertex="1" parent="1">
          <mxGeometry x="267.5" y="180" width="145" height="30" as="geometry" />
        </mxCell>
        <mxCell id="9oOe2sdSuEdtYgbz2QIB-3" value="&lt;span style=&quot;font-size: 14px;&quot;&gt;&lt;b&gt;Power Measure Module&lt;/b&gt;&lt;/span&gt;" style="text;html=1;strokeColor=none;fillColor=none;align=center;verticalAlign=middle;whiteSpace=wrap;rounded=0;" vertex="1" parent="1">
          <mxGeometry x="438.75" y="420" width="162.5" height="30" as="geometry" />
        </mxCell>
        <mxCell id="9oOe2sdSuEdtYgbz2QIB-4" value="&lt;span style=&quot;font-size: 14px;&quot;&gt;&lt;b&gt;Battery&lt;/b&gt;&lt;/span&gt;" style="text;html=1;strokeColor=none;fillColor=none;align=center;verticalAlign=middle;whiteSpace=wrap;rounded=0;rotation=90;" vertex="1" parent="1">
          <mxGeometry x="750" y="250" width="77.5" height="30" as="geometry" />
        </mxCell>
        <mxCell id="9oOe2sdSuEdtYgbz2QIB-5" value="&lt;span style=&quot;font-size: 14px;&quot;&gt;&lt;b&gt;I2C Bus&lt;/b&gt;&lt;/span&gt;" style="text;html=1;strokeColor=none;fillColor=none;align=center;verticalAlign=middle;whiteSpace=wrap;rounded=0;" vertex="1" parent="1">
          <mxGeometry x="650" y="355" width="71.25" height="30" as="geometry" />
        </mxCell>
      </root>
    </mxGraphModel>
  </diagram>
</mxfile>
